
<svg version="1.0" xmlns="http://www.w3.org/2000/svg"
 width="362.000000pt" height="590.000000pt" viewBox="0 0 362.000000 590.000000"
 preserveAspectRatio="xMidYMid meet">
<style>
    path {
      stroke-width: 60px;
      marker: url(#diamond);
    }
  </style>
<g transform="translate(0.000000,590.000000) scale(0.100000,-0.100000)"
fill="#000000" stroke="none">
<path d="M54 5818 c13 -24 371 -668 795 -1431 l771 -1388 0 -1479 0 -1480 80
0 80 0 0 1454 0 1454 167 269 c91 147 294 475 451 728 157 253 354 570 437
705 84 135 285 460 448 723 164 264 297 481 297 483 0 3 -39 3 -87 2 l-87 -3
-96 -155 c-53 -85 -244 -393 -425 -685 -180 -291 -459 -741 -620 -1000 -160
-258 -334 -539 -386 -622 l-94 -153 -3 1310 -2 1310 -80 0 -80 0 -2 -1271 -3
-1271 -705 1270 -705 1271 -88 1 -88 0 25 -42z"/>
</g>
</svg>
