<?xml version="1.0" standalone="no"?>
<!DOCTYPE svg PUBLIC "-//W3C//DTD SVG 20010904//EN"
 "http://www.w3.org/TR/2001/REC-SVG-20010904/DTD/svg10.dtd">
<svg version="1.0" xmlns="http://www.w3.org/2000/svg"
 width="130.000000pt" height="130.000000pt" viewBox="0 0 130.000000 130.000000"
 preserveAspectRatio="xMidYMid meet">

<g transform="translate(0.000000,130.000000) scale(0.100000,-0.100000)"
fill="#000000" stroke="none">
<path d="M460 975 c0 -3 41 -63 90 -134 l90 -128 0 -192 c0 -121 4 -191 10
-191 6 0 10 70 10 191 l0 192 90 128 c50 70 90 130 90 133 0 22 -28 -9 -96
-108 l-79 -114 -3 114 c-4 152 -22 150 -22 -3 l0 -116 -81 116 c-70 101 -99
133 -99 112z"/>
</g>
</svg>
