<?xml version="1.0" encoding="iso-8859-1"?>
<!-- Generator: Adobe Illustrator 19.0.0, SVG Export Plug-In . SVG Version: 6.00 Build 0)  -->
<svg version="1.1" id="Layer_1" xmlns="http://www.w3.org/2000/svg" xmlns:xlink="http://www.w3.org/1999/xlink" x="0px" y="0px"
	 viewBox="0 0 512 512" style="enable-background:new 0 0 512 512;" xml:space="preserve">
<g>
	<g>
		<g>
			<path d="M370.9,79.383c2.185,0,4.369-0.836,6.033-2.5c3.337-3.336,3.337-8.73,0-12.066c-6.451-6.451-10.001-15.019-10.001-24.132
				c0-9.122,3.55-17.681,10.001-24.132c3.337-3.337,3.337-8.738,0-12.066c-3.336-3.337-8.73-3.337-12.066,0
				c-9.677,9.66-15.002,22.519-15.002,36.198c0,13.67,5.325,26.53,15.002,36.198C366.531,78.547,368.715,79.383,370.9,79.383z"/>
			<path d="M425.2,76.883c1.664,1.664,3.849,2.5,6.033,2.5c2.185,0,4.369-0.836,6.033-2.5c9.677-9.668,15.002-22.528,15.002-36.198
				c0-13.679-5.325-26.539-15.002-36.198c-3.336-3.337-8.73-3.337-12.066,0c-3.336,3.328-3.336,8.73,0,12.066
				c6.451,6.451,10.001,15.01,10.001,24.132c0,9.114-3.55,17.681-10.001,24.132C421.863,68.153,421.863,73.546,425.2,76.883z"/>
			<path d="M503.467,492.95h-8.533V322.283c0-4.719-3.814-8.533-8.533-8.533h-9.745l-33.024-214.63
				c-0.094-0.606-0.367-1.118-0.572-1.664c-0.137-0.375-0.196-0.76-0.384-1.109c-0.512-0.939-1.186-1.766-1.988-2.449
				c-0.034-0.026-0.043-0.06-0.068-0.077c-0.205-0.162-0.444-0.205-0.657-0.35c-0.649-0.444-1.323-0.845-2.091-1.101
				c-0.41-0.137-0.828-0.162-1.254-0.23c-0.478-0.077-0.922-0.256-1.417-0.256h-25.6V55.386c5.077-2.961,8.533-8.405,8.533-14.703
				c0-9.429-7.637-17.067-17.067-17.067c-9.429,0-17.067,7.637-17.067,17.067c0,6.298,3.456,11.742,8.533,14.703v36.497h-25.6
				c-0.495,0-0.939,0.179-1.417,0.256c-0.427,0.068-0.845,0.094-1.254,0.23c-0.768,0.256-1.442,0.657-2.091,1.101
				c-0.213,0.145-0.452,0.188-0.657,0.35c-0.026,0.017-0.034,0.051-0.068,0.077c-0.802,0.683-1.476,1.502-1.988,2.44
				c-0.188,0.358-0.247,0.751-0.384,1.118c-0.205,0.546-0.478,1.067-0.572,1.664l-33.024,214.63H256V151.616h8.533
				c4.719,0,8.533-3.814,8.533-8.533V108.95c0-4.719-3.814-8.533-8.533-8.533h-256c-4.719,0-8.533,3.814-8.533,8.533v34.133
				c0,4.719,3.814,8.533,8.533,8.533h8.533V492.95H8.533c-4.719,0-8.533,3.814-8.533,8.533c0,4.719,3.814,8.533,8.533,8.533H25.6
				h8.533H102.4V399.083c0-4.719,3.814-8.533,8.533-8.533h51.2c4.719,0,8.533,3.814,8.533,8.533v110.933H486.4h17.067
				c4.719,0,8.533-3.814,8.533-8.533C512,496.764,508.186,492.95,503.467,492.95z M437.777,173.299l-25.668-31.283l17.562-21.402
				L437.777,173.299z M369.229,194.283l31.838-38.801l31.838,38.801H369.229z M430.507,211.35l-29.44,29.773l-29.44-29.773H430.507z
				 M417.152,108.95l-16.085,19.61l-16.085-19.61H417.152z M372.463,120.615l17.562,21.402l-25.668,31.283L372.463,120.615z
				 M357.043,220.873l32.026,32.384l-43.827,44.314L357.043,220.873z M25.6,134.55h-8.533v-17.067H256v17.067h-8.533H25.6z
				 M196.267,364.95H76.8c-4.719,0-8.533-3.814-8.533-8.533s3.814-8.533,8.533-8.533h119.467c4.719,0,8.533,3.814,8.533,8.533
				S200.986,364.95,196.267,364.95z M136.533,330.816c-42.351,0-76.8-34.449-76.8-76.8c0-42.351,34.449-76.8,76.8-76.8
				s76.8,34.449,76.8,76.8C213.333,296.367,178.884,330.816,136.533,330.816z M273.067,441.75c0,4.719-3.814,8.533-8.533,8.533
				H230.4c-4.719,0-8.533-3.814-8.533-8.533v-85.333c0-4.719,3.814-8.533,8.533-8.533h34.133c4.719,0,8.533,3.814,8.533,8.533
				V441.75z M358.4,441.75c0,4.719-3.814,8.533-8.533,8.533h-34.133c-4.719,0-8.533-3.814-8.533-8.533v-85.333
				c0-4.719,3.814-8.533,8.533-8.533h34.133c4.719,0,8.533,3.814,8.533,8.533V441.75z M443.733,441.75
				c0,4.719-3.814,8.533-8.533,8.533h-34.133c-4.719,0-8.533-3.814-8.533-8.533v-85.333c0-4.719,3.814-8.533,8.533-8.533H435.2
				c4.719,0,8.533,3.814,8.533,8.533V441.75z M353.237,313.75l47.829-48.358l47.829,48.358H353.237z M413.065,253.257l32.026-32.384
				l11.802,76.698L413.065,253.257z"/>
			<path d="M161.312,308.299c18.108-8.303,31.334-25.361,34.27-45.747h-25.131C169.674,279.44,166.594,295.807,161.312,308.299z"/>
			<path d="M77.482,262.55c2.935,20.386,16.171,37.444,34.27,45.747c-5.282-12.493-8.363-28.851-9.139-45.747H77.482z"/>
			<path d="M77.482,245.483h25.131c0.777-16.896,3.857-33.254,9.139-45.747C93.652,208.039,80.417,225.097,77.482,245.483z"/>
			<rect x="119.467" y="407.616" width="34.133" height="102.4"/>
			<path d="M161.312,199.733c5.282,12.493,8.363,28.86,9.139,45.747h25.131C192.646,225.094,179.419,208.036,161.312,199.733z"/>
			<path d="M136.533,313.75c4.574,0,15.241-17.894,16.845-51.2h-33.69C121.293,295.855,131.959,313.75,136.533,313.75z"/>
			<path d="M136.533,194.283c-4.574,0-15.241,17.894-16.845,51.2h33.69C151.774,212.177,141.107,194.283,136.533,194.283z"/>
			<rect x="324.267" y="364.95" width="17.067" height="68.267"/>
			<rect x="409.6" y="364.95" width="17.067" height="68.267"/>
			<rect x="238.933" y="364.95" width="17.067" height="68.267"/>
		</g>
	</g>
</g>
<g>
</g>
<g>
</g>
<g>
</g>
<g>
</g>
<g>
</g>
<g>
</g>
<g>
</g>
<g>
</g>
<g>
</g>
<g>
</g>
<g>
</g>
<g>
</g>
<g>
</g>
<g>
</g>
<g>
</g>
</svg>
