<?xml version="1.0" standalone="no"?>
<!DOCTYPE svg PUBLIC "-//W3C//DTD SVG 20010904//EN"
 "http://www.w3.org/TR/2001/REC-SVG-20010904/DTD/svg10.dtd">
<svg version="1.0" xmlns="http://www.w3.org/2000/svg"
 width="840.000000pt" height="847.000000pt" viewBox="0 0 840.000000 847.000000"
 preserveAspectRatio="xMidYMid meet">

<g transform="translate(0.000000,847.000000) scale(0.100000,-0.100000)"
fill="#000000" stroke="none">
<path d="M2770 8063 c-56 -20 -94 -100 -71 -150 6 -14 320 -539 696 -1168
l685 -1142 0 -2547 c0 -2768 -4 -2588 55 -2634 53 -42 139 -21 169 42 15 31
16 245 16 2586 l0 2551 691 1152 c475 791 693 1163 696 1188 14 101 -120 168
-191 96 -11 -12 -284 -462 -606 -999 l-585 -977 -5 962 c-4 702 -8 967 -17
982 -36 63 -106 81 -163 43 -20 -14 -40 -38 -47 -58 -9 -26 -12 -276 -12 -985
l-1 -950 -593 990 c-517 862 -598 992 -628 1007 -34 18 -61 21 -89 11z"/>
</g>
</svg>
