<?xml version="1.0" encoding="UTF-8"?>
<!DOCTYPE svg PUBLIC "-//W3C//DTD SVG 1.1//EN" "http://www.w3.org/Graphics/SVG/1.1/DTD/svg11.dtd">
<!-- Creator: CorelDRAW -->
<svg xmlns="http://www.w3.org/2000/svg" xml:space="preserve" width="1.70666in" height="1.70666in" version="1.1" style="shape-rendering:geometricPrecision; text-rendering:geometricPrecision; image-rendering:optimizeQuality; fill-rule:evenodd; clip-rule:evenodd"
viewBox="0 0 1706.66 1706.66"
 xmlns:xlink="http://www.w3.org/1999/xlink"
 xmlns:xodm="http://www.corel.com/coreldraw/odm/2003">
 <defs>
  <style type="text/css">
   <![CDATA[
    .fil0 {fill:black}
    .fil4 {fill:#4CC949}
    .fil5 {fill:#D4DFF5}
    .fil2 {fill:#FB626B}
    .fil3 {fill:#FFAA83}
    .fil1 {fill:#FFCC00}
   ]]>
  </style>
 </defs>
 <g id="Layer_x0020_1">
  <metadata id="CorelCorpID_0Corel-Layer"/>
  <path class="fil0" d="M977.04 1706.64l-923.09 0c-11.04,0 -20,-8.97 -20,-20l0 -1666.64c0,-11.04 8.96,-20 20,-20l1203.41 0c11.04,0 20,8.96 20,20l0 422.33c0,26.32 -40,26.32 -40,0l0 -402.33 -1163.41 0 0 1626.64 903.09 0c26.33,0 26.33,40 0,40zm280.33 -574c-11.04,0 -20,-8.97 -20,-20l0 -670.3c0,-26.33 40,-26.32 40,0l0 670.3c0,11.04 -8.96,20 -20,20z"/>
  <path class="fil0" d="M1537.54 1706.65l-560.51 0c-11.04,0 -20,-8.97 -20,-20l0 -66.6c0,-113.14 80.9,-209.65 192.39,-229.47 8.37,-1.46 16.72,2.49 20.91,9.83 38.3,67.51 135.64,67.52 173.96,0 4.18,-7.35 12.53,-11.29 20.9,-9.83 111.47,19.83 192.39,116.33 192.39,229.47l0 66.6c-0.03,11.04 -8.99,20 -20.03,20zm-540.49 -40l520.49 0 0 -46.58c0,-89.32 -60.86,-166.11 -146.5,-187.35 -55.84,77.82 -171.67,77.83 -227.48,0 -85.63,21.23 -146.5,98.04 -146.5,187.35l-0.02 46.58z"/>
  <path class="fil0" d="M1256.62 1372.35c-77.12,0 -139.86,-62.75 -139.86,-139.86 0,-77.11 62.75,-139.86 139.86,-139.86 77.11,0 139.86,62.75 139.86,139.86 0,77.11 -62.74,139.86 -139.86,139.86zm0 -239.72c-55.07,0 -99.85,44.8 -99.85,99.85 0,55.06 44.79,99.85 99.85,99.85 55.06,0 99.85,-44.79 99.85,-99.85 0,-55.05 -44.78,-99.85 -99.85,-99.85z"/>
  <path class="fil0" d="M812.93 681.29l-250.08 0c-26.33,0 -26.33,-40 0,-40l250.08 0c26.32,0 26.34,40 0,40z"/>
  <path class="fil0" d="M1069.92 928.02l-507.07 0c-26.33,0 -26.33,-40 0,-40l507.06 0c26.32,0 26.33,40 0.01,40z"/>
  <path class="fil0" d="M1069.92 1174.74l-507.07 0c-26.33,0 -26.33,-40 0,-40l507.06 0c26.32,0 26.33,40 0.01,40z"/>
  <path class="fil0" d="M300.11 681.29c-14.76,0 -47.08,-38.82 -65.26,-56.98 -18.63,-18.61 9.66,-46.91 28.28,-28.28l36.99 36.97 116.72 -116.71c18.63,-18.63 46.9,9.67 28.28,28.28l-130.86 130.86c-3.9,3.89 -9.02,5.85 -14.15,5.85z"/>
  <path class="fil0" d="M292.52 928.02c-14.76,0 -47.1,-38.83 -65.25,-56.99 -18.64,-18.64 9.69,-46.92 28.28,-28.29l36.97 36.98 116.74 -116.72c18.63,-18.63 46.9,9.67 28.28,28.28l-130.87 130.87c-3.75,3.76 -8.85,5.87 -14.14,5.87z"/>
  <path class="fil0" d="M292.91 1174.79c-14.75,0 -47.13,-38.86 -65.26,-56.99 -18.64,-18.64 9.68,-46.91 28.28,-28.29l36.98 36.98 116.72 -116.72c18.65,-18.65 46.89,9.7 28.28,28.29l-130.86 130.86c-3.91,3.91 -9.02,5.86 -14.15,5.86z"/>
  <path class="fil0" d="M1069.92 402.26l-507.07 0c-26.33,0 -26.33,-40 0,-40l507.06 0c26.33,0 26.33,40 0.01,40z"/>
  <path class="fil0" d="M300.11 402.26c-14.78,0 -47.06,-38.81 -65.26,-56.98 -18.63,-18.61 9.66,-46.91 28.28,-28.28l36.99 36.97 116.72 -116.72c18.61,-18.63 46.91,9.67 28.28,28.28l-130.86 130.86c-3.76,3.78 -8.84,5.88 -14.15,5.88z"/>
  <path class="fil0" d="M1123.34 796.93c-5.31,0 -10.39,-2.11 -14.15,-5.86l-100.29 -100.29c-7.82,-7.81 -7.82,-20.47 0,-28.28l508.63 -508.65c35.43,-35.42 93.17,-35.4 128.59,0 35.44,35.44 35.46,93.12 0.02,128.57l-508.65 508.65c-3.76,3.76 -8.84,5.87 -14.15,5.87zm-72 -120.29l72.02 72.02 494.5 -494.49c48.13,-48.14 -25.6,-118.41 -72.02,-72.02l-494.5 494.49z"/>
  <path class="fil0" d="M967.31 852.68c-13.67,0 -23.51,-13.62 -18.85,-26.72l55.74 -156.04c8.88,-24.78 46.54,-11.34 37.68,13.44l-41.53 116.28 116.26 -41.54c24.8,-8.81 38.28,28.81 13.46,37.66 -19.44,6.93 -154.6,56.93 -162.76,56.93z"/>
  <path class="fil0" d="M1616.09 304.18c-5.11,0 -10.24,-1.96 -14.15,-5.86l-100.3 -100.3c-18.64,-18.62 9.69,-46.91 28.3,-28.28l100.3 100.29c12.65,12.64 3.5,34.14 -14.14,34.14z"/>
  <path class="fil0" d="M1566.49 353.79c-5.11,0 -10.24,-1.96 -14.15,-5.86l-100.3 -100.29c-18.64,-18.62 9.69,-46.91 28.29,-28.28l100.3 100.29c12.65,12.64 3.5,34.14 -14.14,34.14z"/>
  <polygon class="fil1" points="1244.98,627.02 1538.21,333.8 1466.19,261.79 1051.34,676.64 1123.35,748.65 "/>
  <polygon class="fil2" points="1494.48,233.5 1566.5,305.52 1587.81,284.2 1515.8,212.18 "/>
  <path class="fil2" d="M1544.08 183.9l72.02 72.02c50.29,-50.29 -23.41,-120.62 -72.02,-72.02z"/>
  <polygon class="fil3" points="1086.85,768.73 1031.25,713.13 1000.36,799.63 "/>
  <path class="fil3" d="M1256.62 1132.63c-55.07,0 -99.85,44.8 -99.85,99.85 0,55.06 44.79,99.85 99.85,99.85 55.06,0 99.85,-44.79 99.85,-99.85 0,-55.64 -46.39,-100.7 -99.85,-99.85z"/>
  <path class="fil4" d="M1371.05 1432.73c-55.84,77.82 -171.67,77.83 -227.48,0 -85.63,21.23 -146.5,98.04 -146.5,187.35l-0.02 46.58 520.49 0 0 -46.58c0,-89.32 -60.86,-166.11 -146.5,-187.35z"/>
  <path class="fil5" d="M1184.8 1352.47c-113.12,-67.97 -77.23,-240.57 52.57,-258.52l0 -402.78c-14.1,14.1 -97.29,101.02 -107.29,104.58 -19.44,6.93 -154.6,56.93 -162.76,56.93 -13.67,0 -23.51,-13.62 -18.85,-26.72l56.47 -157.86c5.28,-11.49 230.23,-228.79 232.42,-234.07l0 -394.02 -1163.41 0 0 1626.64 883.09 0 0 -46.58c0,-174.32 176.52,-243.25 205.55,-227.28l22.22 -40.31zm-371.88 -671.18l-250.08 0c-26.33,0 -26.33,-40 0,-40l250.08 0c26.32,0 26.34,40 0,40zm257 -279.03l-507.07 0c-26.33,0 -26.33,-40 0,-40l507.06 0c26.33,0 26.33,40 0.01,40zm-777.02 772.52c-14.75,0 -47.13,-38.86 -65.26,-56.99 -18.64,-18.64 9.68,-46.91 28.28,-28.29l36.98 36.98 116.72 -116.72c18.65,-18.65 46.89,9.7 28.28,28.29l-130.86 130.86c-3.91,3.91 -9.02,5.86 -14.15,5.86zm-0.39 -246.76c-14.76,0 -47.1,-38.83 -65.25,-56.99 -18.64,-18.64 9.69,-46.92 28.28,-28.29l36.97 36.98 116.74 -116.72c18.63,-18.63 46.9,9.67 28.28,28.28l-130.87 130.87c-3.75,3.76 -8.85,5.87 -14.14,5.87zm7.6 -246.73c-14.76,0 -47.08,-38.82 -65.26,-56.98 -18.63,-18.61 9.66,-46.91 28.28,-28.28l36.99 36.97 116.72 -116.71c18.63,-18.63 46.9,9.67 28.28,28.28l-130.86 130.86c-3.9,3.89 -9.02,5.85 -14.15,5.85zm0 -279.03c-14.78,0 -47.06,-38.81 -65.26,-56.98 -18.63,-18.61 9.66,-46.91 28.28,-28.28l36.99 36.97 116.72 -116.72c18.61,-18.63 46.91,9.67 28.28,28.28l-130.86 130.86c-3.76,3.78 -8.84,5.88 -14.15,5.88zm769.81 772.48l-507.07 0c-26.33,0 -26.33,-40 0,-40l507.06 0c26.32,0 26.33,40 0.01,40zm0 -246.72l-507.07 0c-26.33,0 -26.33,-40 0,-40l507.06 0c26.32,0 26.33,40 0.01,40z"/>
 </g>
</svg>
